# xmcd
# Track frame offsets:
# 150
# 13850
# 27875
# 41350
# 57625
# 74425
# 86150
# 98150
# 113125
# 128750
# 141950
# 151975
# 170975
# 191825
# 210050
# 230600
# 250175
# 266900
# 283000
# 297350
# 310100
# 324012
#
# Disc length: 4473 seconds
# Revision: 0
# Processed by: cddbd v1.4PL0 Copyright (c) Steve Scherf et al.
# Submitted via: VisiTrax 2.9.3.171 - For more info visit www.synapsa.com
#
DISCID=45117716
DTITLE=Various Artist - Caprice International Radio Single Sampler
DYEAR=1900
DGENRE=
TTITLE0=Joey Welz - In The  Middle Of The Night Time
TTITLE1=Joey Welz - Livin' On San Diego Time
TTITLE2=Joey Welz - Feelin' Blue
TTITLE3=Bobby B - Unconditional Love
TTITLE4=Bobby B - Tennessee Heart
TTITLE5=Dawn Marie - She Shot Him Down
TTITLE6=Dawn Marie - The Ragin' Wind
TTITLE7=Bo Coulter - What A Wino Don't Know
TTITLE8=Jody King - Lonesome Cowboy
TTITLE9=Bonnie Lee - In My Face And On My Case
TTITLE10=Grand Central Station - Crazy In Love With You
TTITLE11=Joey Welz - One World Of Love
TTITLE12=Joey Welz - Long Distance Love
TTITLE13=Joey Welz - Everyday, For The Rest Of My Life
TTITLE14=Brother Jake - Midnight Love
TTITLE15=Brother Jake - Heavenly Hanna
TTITLE16=Lloyd Marcus - Another Life
TTITLE17=Mari Steel - Bottom Line
TTITLE18=Fender/Welz Blues Band - One Stormy Night
TTITLE19=Traces Of Thyme - You Changed
TTITLE20=Jo El Curtis - The Ladies Choice
TTITLE21=The Other Half - Welcome To My Job
EXTD=
EXTT0=
EXTT1=
EXTT2=
EXTT3=
EXTT4=
EXTT5=
EXTT6=
EXTT7=
EXTT8=
EXTT9=
EXTT10=
EXTT11=
EXTT12=
EXTT13=
EXTT14=
EXTT15=
EXTT16=
EXTT17=
EXTT18=
EXTT19=
EXTT20=
EXTT21=
PLAYORDER=
